<svg width="16" height="16" viewBox="0 0 16 16" fill="none" xmlns="http://www.w3.org/2000/svg">
<path fill-rule="evenodd" clip-rule="evenodd" d="M1.1234 3.90919C2.50124 1.59767 5.01128 0.0395319 7.88823 0.00013313V4.00007C6.47896 4.02028 5.24605 4.76934 4.54948 5.88723L1.1234 3.90919ZM4.44152 6.07125L1.01662 4.09389C0.369149 5.24914 0 6.58145 0 8C0 9.41851 0.369134 10.7508 1.01658 11.906L4.44144 9.92854C4.12615 9.3566 3.94674 8.69924 3.94674 7.99997C3.94674 7.30064 4.12618 6.64322 4.44152 6.07125ZM4.54939 10.1126L1.12336 12.0907C2.50119 14.4023 5.01126 15.9605 7.88823 15.9999V11.9999C6.4789 11.9797 5.24595 11.2305 4.54939 10.1126ZM8.10158 11.9973V16C12.473 15.9456 16 12.3847 16 8C16 3.61528 12.473 0.0544014 8.10158 0V4.0026C9.48771 4.05536 10.6932 4.81352 11.3693 5.92841L14.8698 3.90726L14.9764 4.09202L11.475 6.11372C11.776 6.67567 11.9467 7.31788 11.9467 7.99997C11.9467 8.6819 11.7761 9.32397 11.4752 9.88583L14.9767 11.9074L14.8701 12.0922L11.3695 10.0711C10.6934 11.1862 9.48787 11.9446 8.10158 11.9973ZM8 16.0006L7.97381 16.0006H8.02619L8 16.0006Z" fill="#CF4242"/>
<path fill-rule="evenodd" clip-rule="evenodd" d="M8.1016 16V11.9974C9.48789 11.9446 10.6935 11.1863 11.3696 10.0712L14.8701 12.0922L14.9128 12.0182L14.9177 12.0211C13.5475 14.3737 11.0116 15.9638 8.1016 16ZM7.98975 16.0006L8.00002 16.0006L8.02621 16.0006H7.98975L7.98975 16.0006Z" fill="#FFCC00"/>
<path fill-rule="evenodd" clip-rule="evenodd" d="M1.12341 3.90917C2.50125 1.59766 5.0113 0.0395209 7.88824 0.00012207V4.00006C6.47898 4.02027 5.24607 4.76933 4.54949 5.88722L1.12341 3.90917Z" fill="#65696C"/>
<path fill-rule="evenodd" clip-rule="evenodd" d="M1.01662 4.09399L4.44152 6.07136C4.12618 6.64333 3.94674 7.30075 3.94674 8.00008C3.94674 8.69935 4.12615 9.35671 4.44144 9.92865L1.01658 11.9061C0.369134 10.7509 0 9.41862 0 8.0001C0 6.58156 0.369149 5.24925 1.01662 4.09399Z" fill="#424BFC"/>
<path fill-rule="evenodd" clip-rule="evenodd" d="M1.12341 12.0908L4.54944 10.1127C5.246 11.2306 6.47896 11.9798 7.88829 12V16C5.01131 15.9606 2.50124 14.4024 1.12341 12.0908ZM7.99419 16.0007L7.99419 16.0007H7.97386L7.99419 16.0007Z" fill="#2BCE9A"/>
<path fill-rule="evenodd" clip-rule="evenodd" d="M14.9054 12.0307L14.9103 12.0336C15.603 10.8493 15.9999 9.47099 15.9999 7.99996C15.9999 6.54199 15.61 5.1751 14.9287 3.99792L14.9237 4.00079L14.9764 4.09198L11.475 6.11368C11.776 6.67563 11.9467 7.31785 11.9467 7.99993C11.9467 8.68186 11.7761 9.32393 11.4752 9.88579L14.9767 11.9074L14.9054 12.0307Z" fill="#F09F2E"/>
</svg>
